<?xml version="1.0" standalone="no"?> <!DOCTYPE svg PUBLIC "-//W3C//DTD SVG 1.0//EN" "http://www.w3.org/TR/2001/REC-SVG-20010904/DTD/svg10.dtd" > <svg xmlns="http://www.w3.org/2000/svg" width="100%" height="100%">
<defs >
<font id="helveticalight" horiz-adv-x="1029" ><font-face
    font-family="Helvetica-Light"
    units-per-em="2048"
    panose-1="2 11 5 0 0 0 0 0 0 0"
    ascent="1518"
    descent="-438"
    alphabetic="0" />
<missing-glyph horiz-adv-x="1536" d="M256 0V1280H1280V0H256ZM1248 32V1248H288V32H1248Z" />
<glyph unicode=" " glyph-name="space" horiz-adv-x="569" />
<glyph unicode="!" glyph-name="exclam" horiz-adv-x="682" d="M408 1475V1042L377 371H303L272 1042V1475H408ZM416 207V0H266V207H416Z" />
<glyph unicode="&quot;" glyph-name="quotedbl" horiz-adv-x="569" d="M195 883H92L74 1475H213L195 883ZM479 883H377L358 1475H498L479 883Z" />
<glyph unicode="#" glyph-name="numbersign" horiz-adv-x="1139" d="M756 508L696 74H602L662 508H412L352 74H260L319 508H55L68 602H332L367 848H102L115 942H379L432 1343H526L471 942H721L776 1343H868L813 942H1085L1073 848H801L768 602H1038L1026 508H756ZM709
848H459L426 602H676L709 848Z" />
<glyph unicode="$" glyph-name="dollar" horiz-adv-x="1139" d="M518 1640H612V1460Q790 1449 895 1368Q965 1312 995 1241T1028 1061H901Q895 1145 879 1190T825 1270Q746 1346 612 1352V795Q728 774 812 739T951 655T1032 537T1059 377Q1059 260 1005 168T850
23Q806 -1 751 -14T612 -33V-279H518V-33Q320 -30 199 88Q134 150 105 234T76 436H201Q202 343 218 285T272 180Q313 133 373 107T518 72V694Q328 732 236 805Q196 838 167 880T124 971T109 1075Q109 1183 158 1269T299 1405Q344 1432 393 1444T518 1460V1640ZM518
817V1356Q430 1351 366 1318T266 1226T231 1090Q231 943 356 870Q408 843 518 817ZM612 674V74Q696 80 746 97T840 154Q885 194 909 251T934 371Q934 533 795 610Q762 629 659 662L643 666L629 670L612 674Z" />
<glyph unicode="%" glyph-name="percent" horiz-adv-x="1821" d="M1362 1430L557 0H451L1253 1430H1362ZM1360 756Q1515 756 1598 659T1681 379Q1681 250 1644 158T1532 20T1352 -27Q1250 -27 1178 17T1068 147T1030 354Q1030 546 1116 651T1360 756ZM1360 666Q1289
666 1242 632T1170 532T1145 367Q1145 217 1198 138T1352 59Q1421 59 1470 93T1544 196T1569 365Q1569 511 1515 588T1360 666ZM467 1466Q622 1466 705 1369T788 1087Q788 960 750 871T639 734T461 686Q305 686 221 787T137 1077Q137 1200 176 1287T289 1420T467
1466ZM465 1376Q361 1376 306 1299T250 1077Q250 928 303 851T459 774Q585 774 639 887Q657 922 666 971T676 1075Q676 1376 465 1376Z" />
<glyph unicode="&amp;" glyph-name="ampersand" horiz-adv-x="1366" d="M1020 651H1139Q1138 569 1112 473T1049 311L1319 0H1163L983 207Q931 130 864 77T715 -2T545 -29Q410 -29 305 21T142 162T84 371Q84 563 268 700Q383 782 467 825Q359 946 316 1025T272
1178Q272 1265 315 1332T436 1436T614 1473Q683 1473 743 1451T847 1391T915 1298T940 1184Q940 1072 870 981T641 795L963 412Q1011 533 1020 651ZM573 879Q652 922 707 969T790 1069T819 1171Q819 1226 792 1270T717 1340T610 1366Q516 1366 455 1314T393 1180Q393
1080 530 928Q547 910 553 903T573 879ZM905 295L532 737Q418 674 349 618T248 502T215 375Q215 252 312 166T549 80Q760 80 905 295Z" />
<glyph unicode="&apos;" glyph-name="quotesingle" horiz-adv-x="455" d="M279 883H176L158 1475H297L279 883Z" />
<glyph unicode="(" glyph-name="parenleft" horiz-adv-x="682" d="M422 1475H522Q438 1340 380 1186T291 866T260 543Q260 378 290 216T378 -99T522 -395H422Q314 -213 252 -64T160 233T131 545Q131 686 157 828T238 1114Q311 1314 422 1475Z" />
<glyph unicode=")" glyph-name="parenright" horiz-adv-x="682" d="M260 -395H160Q241 -262 300 -108T389 213T420 537Q420 702 391 864T302 1184T160 1475H260Q414 1219 482 999T551 535Q551 254 444 -35Q370 -236 260 -395Z" />
<glyph unicode="*" glyph-name="asterisk" horiz-adv-x="797" d="M705 1229L465 1147L612 944L547 895L395 1104L246 897L178 946L328 1147L90 1229L119 1307L354 1221V1475H438V1221L674 1307L705 1229Z" />
<glyph unicode="+" glyph-name="plus" horiz-adv-x="1352" d="M184 764H627V1210H721V764H1165V668H721V221H627V668H184V764Z" />
<glyph unicode="," glyph-name="comma" horiz-adv-x="569" d="M387 213V59Q387 -46 370 -113T313 -221T207 -287V-201Q254 -179 275 -132T299 0H238V213H387Z" />
<glyph unicode="-" glyph-name="hyphen" horiz-adv-x="682" d="M600 604V485H82V604H600Z" />
<glyph unicode="." glyph-name="period" horiz-adv-x="569" d="M358 221V0H209V221H358Z" />
<glyph unicode="/" glyph-name="slash" horiz-adv-x="569" d="M582 1513L100 -184H0L481 1513H582Z" />
<glyph unicode="0" glyph-name="zero" horiz-adv-x="1139" d="M569 1462Q707 1462 810 1397T973 1210Q1004 1142 1021 1070T1048 909T1057 711Q1057 404 975 227Q855 -31 567 -31Q427 -31 321 35T158 223Q130 286 113 356T88 513T80 694Q80 1036 168 1212Q228
1335 330 1398T569 1462ZM567 1350Q465 1350 392 1297T279 1141Q260 1093 244 1018T221 859T213 692Q213 447 270 293Q295 230 339 182T443 108T569 82Q667 82 746 140T864 301Q924 455 924 713Q924 1350 567 1350Z" />
<glyph unicode="1" glyph-name="one" horiz-adv-x="1139" d="M750 1446V0H614V1077H561H418H301H246V1178Q348 1181 407 1188T502 1211T565 1255Q596 1286 612 1322T647 1446H750Z" />
<glyph unicode="2" glyph-name="two" horiz-adv-x="1139" d="M1055 117V0H98Q109 115 137 191T223 334Q275 397 365 467Q393 489 469 541Q486 551 505 564T555 598Q697 690 774 759T883 895T915 1049Q915 1139 875 1207T763 1313T592 1350Q501 1350 429 1310T315
1196Q266 1110 260 948H133Q133 1191 254 1326T598 1462Q700 1462 784 1433T927 1352T1017 1224T1049 1055Q1049 961 1015 879T911 723Q843 649 735 575Q693 544 578 471Q471 401 416 359T326 276Q262 201 246 117H281H317H1055Z" />
<glyph unicode="3" glyph-name="three" horiz-adv-x="1139" d="M225 987H104Q111 1215 231 1338T569 1462Q698 1462 794 1416T944 1284T997 1087Q997 1010 968 946T885 837T760 774Q900 744 974 652T1049 412Q1049 314 1014 234T913 93T757 1T561 -31Q451 -31
359 1T202 96T104 241T70 430V465H195Q195 331 244 248Q288 171 372 127T557 82Q659 82 741 123T869 239T915 403Q915 485 884 549T791 653Q703 711 543 711Q502 711 473 709V817H524Q688 817 776 885T864 1081Q864 1205 782 1277T557 1350Q405 1350 320 1256T225
987Z" />
<glyph unicode="4" glyph-name="four" horiz-adv-x="1139" d="M1065 463V354H856V0H721V354H74V477L748 1446H856V463H1065ZM721 463V1249L180 463H721Z" />
<glyph unicode="5" glyph-name="five" horiz-adv-x="1139" d="M967 1430V1313H348L246 815Q313 890 391 925T569 961Q705 961 810 899T976 725T1036 473Q1036 369 1001 276T897 113Q760 -31 547 -31Q407 -31 301 24T135 182T72 418H199Q205 315 250 238T372 119T555
78Q651 78 731 129T857 269T903 465Q903 577 858 664T731 799T545 848Q340 848 227 680L113 686L254 1430H967Z" />
<glyph unicode="6" glyph-name="six" horiz-adv-x="1139" d="M1020 1081H891Q878 1163 838 1224T738 1317T598 1350Q463 1350 377 1271T246 1026Q213 901 205 690Q262 812 363 877T600 942Q728 942 832 881T994 712T1053 467Q1053 326 992 212T823 33T578 -31Q455
-31 349 27T182 190Q131 280 108 397T84 682Q84 869 117 1014T216 1260T380 1411T602 1462Q717 1462 807 1417T951 1286T1020 1081ZM580 829Q482 829 403 782T280 651T236 461Q236 298 335 190T584 82Q727 82 823 188T920 453Q920 620 825 724T580 829Z" />
<glyph unicode="7" glyph-name="seven" horiz-adv-x="1139" d="M1040 1430V1311Q968 1237 896 1144T767 959T657 754Q599 630 561 514T498 272T459 0H319Q325 110 345 218T400 438T487 672Q536 789 587 881T709 1069Q759 1139 786 1172T887 1284Q894 1291 900
1298T913 1313H121V1430H1040Z" />
<glyph unicode="8" glyph-name="eight" horiz-adv-x="1139" d="M369 780Q296 802 248 845T173 952T147 1092Q147 1203 200 1287T349 1416T575 1462Q697 1462 791 1417T937 1290T989 1100Q989 982 934 901T772 780Q861 757 920 711Q1049 604 1049 418Q1049 282
991 181T825 24T573 -31Q426 -31 316 22T148 176T90 414Q90 553 164 651T369 780ZM573 1350Q482 1350 415 1318T312 1227T276 1085Q276 967 357 897T575 827Q661 827 725 859T825 949T860 1085Q860 1166 826 1226T727 1318T573 1350ZM573 725Q469 725 389 687T266
578T223 414Q223 312 265 237T387 122T573 82Q677 82 753 122T872 238T915 412Q915 489 886 552T803 653Q758 687 696 706T573 725Z" />
<glyph unicode="9" glyph-name="nine" horiz-adv-x="1139" d="M115 346H240Q258 225 343 154T553 82Q698 82 789 183T913 479Q920 515 925 566T932 674V756Q873 620 777 555T539 489Q407 489 304 550T142 721T84 969Q84 1109 144 1222T313 1398T557 1462Q709 1462
821 1389T989 1176Q1021 1101 1038 990T1055 752Q1055 447 977 268Q913 121 804 45T549 -31Q459 -31 384 -5T251 71T159 190T115 346ZM551 1350Q457 1350 380 1301T260 1168T217 981Q217 869 259 783T378 650T553 602Q652 602 730 649T853 782T897 973Q897 1082
853 1167T730 1301T551 1350Z" />
<glyph unicode=":" glyph-name="colon" horiz-adv-x="569" d="M358 221V0H209V221H358ZM358 1065V844H209V1065H358Z" />
<glyph unicode=";" glyph-name="semicolon" horiz-adv-x="569" d="M387 213V59Q387 -46 370 -113T313 -221T207 -287V-201Q254 -179 275 -132T299 0H238V213H387ZM387 1065V844H238V1065H387Z" />
<glyph unicode="&lt;" glyph-name="less" horiz-adv-x="1352" d="M1151 1243V1104L348 739L1151 375V238L201 680V801L1151 1243Z" />
<glyph unicode="=" glyph-name="equal" horiz-adv-x="1352" d="M184 922H1165V825H184V922ZM184 604H1165V508H184V604Z" />
<glyph unicode="&gt;" glyph-name="greater" horiz-adv-x="1352" d="M203 238V377L1004 741L203 1104V1243L1151 801V678L203 238Z" />
<glyph unicode="?" glyph-name="question" horiz-adv-x="1024" d="M201 1018H78Q81 1119 98 1189T152 1315Q191 1375 248 1417T378 1482T530 1505Q658 1505 758 1457T912 1323T967 1124Q967 980 879 870Q844 825 715 705Q657 650 629 610T593 519T582 367H459Q460
458 467 511T492 606Q517 662 582 733Q599 751 645 795L700 850Q769 915 801 979T834 1116Q834 1193 796 1257T689 1356T537 1391Q339 1391 252 1239Q227 1195 216 1146T201 1018ZM594 207V0H444V207H594Z" />
<glyph unicode="@" glyph-name="at" horiz-adv-x="1638" d="M1434 373H1511Q1480 298 1440 247T1333 141Q1118 -35 848 -35Q694 -35 554 24T306 190T140 436T82 733Q82 892 141 1033T310 1283T560 1450T860 1509Q1007 1509 1134 1461T1356 1327T1503 1125T1556
877Q1556 610 1354 444Q1283 388 1210 357T1069 326Q1003 326 963 358T911 453Q792 328 666 328Q593 328 539 362T455 461T426 612Q426 782 532 940Q674 1147 858 1147Q1003 1147 1065 1001L1106 1112H1206L1022 567Q1001 499 1001 471Q1001 434 1024 413T1085
391Q1209 391 1327 506Q1483 654 1483 864Q1483 1027 1402 1158T1178 1365T858 1440Q713 1440 586 1386T363 1235T213 1009T160 733Q160 589 212 464T360 241T582 90T850 37Q967 37 1081 79T1286 196T1434 373ZM942 649L993 797Q1022 873 1022 922Q1022 990 981
1036T881 1083Q799 1083 719 1009T589 818T539 580Q539 496 577 445T678 393Q771 393 844 469Q872 498 894 538T942 649Z" />
<glyph unicode="A" glyph-name="A" horiz-adv-x="1366" d="M762 1479L1333 0H1188L1008 465H352L176 0H31L608 1479H762ZM971 578L684 1346L393 578H971Z" />
<glyph unicode="B" glyph-name="B" horiz-adv-x="1366" d="M166 1475H698Q814 1475 885 1462T1012 1417Q1098 1370 1146 1288T1194 1106Q1194 986 1125 898T938 780Q1035 762 1087 729Q1165 682 1207 603T1249 420Q1249 335 1221 264T1141 137T1016 47Q910 0 733
0H166V1475ZM305 1354V821H635Q734 821 789 827T893 850Q968 879 1011 942T1055 1087Q1055 1171 1015 1232T903 1323Q869 1339 814 1346T672 1354H305ZM305 709V121H682Q758 121 817 127T916 146T991 182Q1110 260 1110 424Q1110 509 1068 572T948 670Q852 709
672 709H305Z" />
<glyph unicode="C" glyph-name="C" horiz-adv-x="1479" d="M1235 565H1372Q1357 387 1276 250T1060 39T754 -35Q607 -35 487 19T280 175T145 420T98 731Q98 902 146 1046T282 1293T493 1453T766 1509Q1060 1509 1227 1315Q1337 1188 1354 1032H1217Q1195 1138
1132 1219T975 1345T764 1389Q645 1389 549 1343T382 1210T275 1001T238 731Q238 590 275 471T382 265T547 132T758 86Q892 86 993 142T1155 304T1235 565Z" />
<glyph unicode="D" glyph-name="D" horiz-adv-x="1479" d="M166 1475H698Q856 1475 965 1441T1159 1327Q1259 1236 1314 1089T1370 764Q1370 372 1165 164Q1078 75 975 38T709 0H166V1475ZM305 1354V121H676Q781 121 851 133T974 175T1075 256Q1128 312 1162 385T1214
549T1231 758Q1231 1066 1069 1225Q1023 1271 970 1299T850 1340T696 1354H305Z" />
<glyph unicode="E" glyph-name="E" horiz-adv-x="1251" d="M1159 1475V1354H305V823H1104V702H305V121H1167V0H166V1475H1159Z" />
<glyph unicode="F" glyph-name="F" horiz-adv-x="1139" d="M1102 1475V1354H291V823H1014V702H291V0H152V1475H1102Z" />
<glyph unicode="G" glyph-name="G" horiz-adv-x="1593" d="M1423 750V0H1331L1303 274Q1259 177 1183 107T1006 1T784 -35Q638 -35 513 20T297 178T157 422T109 731Q109 898 158 1042T301 1292T519 1453T793 1509Q890 1509 976 1489T1129 1429T1259 1323T1356
1183T1403 1020H1268Q1248 1132 1183 1215T1018 1344T797 1389Q634 1389 510 1307T317 1074T248 729Q248 538 316 392T508 166T795 86Q895 86 983 117T1137 207T1245 354Q1273 412 1286 479T1300 635H799V750H1423Z" />
<glyph unicode="H" glyph-name="H" horiz-adv-x="1479" d="M1315 1475V0H1176V713H303V0H164V1475H303V834H1176V1475H1315Z" />
<glyph unicode="I" glyph-name="I" horiz-adv-x="569" d="M354 1475V0H215V1475H354Z" />
<glyph unicode="J" glyph-name="J" horiz-adv-x="1024" d="M850 1475V422Q850 287 837 222T784 100Q684 -41 451 -41Q314 -41 221 12T84 166Q45 254 45 420V477H180V432Q180 279 213 209Q274 80 451 80Q600 80 666 180Q690 221 700 279T711 440V1475H850Z" />
<glyph unicode="K" glyph-name="K" horiz-adv-x="1366" d="M1272 1475L672 879L1329 0H1155L578 782L313 524V0H174V1475H313V666L1116 1475H1272Z" />
<glyph unicode="L" glyph-name="L" horiz-adv-x="1139" d="M1096 121V0H166V1475H305V121H1096Z" />
<glyph unicode="M" glyph-name="M" horiz-adv-x="1706" d="M1546 1475V0H1407V1329L920 0H788L299 1329V0H160V1475H377L856 174L1333 1475H1546Z" />
<glyph unicode="N" glyph-name="N" horiz-adv-x="1479" d="M1315 1475V0H1145L301 1307V0H162V1475H332L1176 174V1475H1315Z" />
<glyph unicode="O" glyph-name="O" horiz-adv-x="1593" d="M805 1509Q953 1509 1077 1453T1294 1292T1434 1046T1483 733Q1483 509 1397 334T1155 62T797 -35Q644 -35 517 20T299 179T158 422T109 735Q109 911 158 1052T300 1297T521 1455T805 1509ZM797 1389Q675
1389 574 1343T400 1212T287 1006T248 745Q248 600 287 476T399 266T571 133T795 86Q917 86 1017 131T1192 265T1304 472T1343 735Q1343 879 1304 1000T1193 1208T1019 1342T797 1389Z" />
<glyph unicode="P" glyph-name="P" horiz-adv-x="1251" d="M160 1475H680Q802 1475 878 1459T1014 1401Q1180 1289 1180 1051Q1180 976 1161 913T1105 798T1018 711Q958 667 883 648T698 629H299V0H160V1475ZM299 1354V750H657Q749 750 807 761T911 801Q974 841
1007 905T1040 1055Q1040 1138 1008 1202T915 1305Q869 1333 813 1343T651 1354H299Z" />
<glyph unicode="Q" glyph-name="Q" horiz-adv-x="1593" d="M1466 -6L1395 -96L1163 82Q1098 29 996 -3T782 -35Q583 -35 427 62T185 335T98 737Q98 904 147 1048T289 1295T509 1453T786 1509Q939 1509 1064 1454T1281 1297T1423 1053T1473 739Q1473 561 1417 411T1255
154L1466 -6ZM938 401L1153 233Q1333 429 1333 737Q1333 881 1295 1001T1184 1208T1010 1342T786 1389Q665 1389 565 1343T390 1209T277 1001T238 737Q238 594 277 472T390 263T566 131T793 86Q873 86 937 106T1059 166L864 311L938 401Z" />
<glyph unicode="R" glyph-name="R" horiz-adv-x="1366" d="M164 1475H741Q843 1475 916 1459T1042 1409Q1128 1356 1171 1273T1214 1077Q1214 935 1141 842T928 713Q998 701 1041 678T1118 610Q1163 549 1178 451Q1180 433 1188 336L1190 293L1194 250Q1201 136
1213 87T1253 0H1096Q1080 28 1072 74T1061 203Q1052 384 1034 459Q1007 570 925 614T666 659H303V0H164V1475ZM303 1354V772H647Q758 772 827 783T948 825Q1075 901 1075 1069Q1075 1239 936 1313Q855 1354 696 1354H303Z" />
<glyph unicode="S" glyph-name="S" horiz-adv-x="1251" d="M1114 1051H977Q971 1134 945 1199T872 1306T759 1371T604 1393Q446 1393 356 1320T266 1118Q266 987 360 924Q409 891 510 862Q519 858 526 856T557 848T637 829Q665 824 727 807Q847 777 915 750T1030
686Q1161 579 1161 401Q1161 194 1004 68Q936 15 847 -10T635 -35Q466 -35 343 26T154 202T88 471V487H225Q228 321 303 223Q356 157 444 121T637 84Q760 84 846 120T977 224T1022 391Q1022 548 862 623Q786 657 559 713Q474 734 416 752T319 788T246 831Q188 875
158 945T127 1100Q127 1226 185 1318T352 1460T610 1509Q765 1509 876 1456T1047 1301T1114 1051Z" />
<glyph unicode="T" glyph-name="T" horiz-adv-x="1139" d="M1106 1475V1354H639V0H500V1354H33V1475H1106Z" />
<glyph unicode="U" glyph-name="U" horiz-adv-x="1479" d="M1311 1475V592Q1311 494 1307 444T1290 346Q1260 223 1188 137T1003 8T741 -35Q384 -35 242 213Q202 281 185 369T168 596V1475H307V590Q307 464 322 387T377 248Q481 84 748 84Q1005 84 1104 244Q1140
301 1155 379T1171 592V1475H1311Z" />
<glyph unicode="V" glyph-name="V" horiz-adv-x="1251" d="M1214 1475L705 0H551L37 1475H182L633 166L1071 1475H1214Z" />
<glyph unicode="W" glyph-name="W" horiz-adv-x="1821" d="M1792 1475L1411 0H1251L907 1331L563 0H403L29 1475H172L492 164L831 1475H987L1329 164L1649 1475H1792Z" />
<glyph unicode="X" glyph-name="X" horiz-adv-x="1251" d="M1186 1475L707 760L1212 0H1051L625 655L190 0H37L545 760L68 1475H225L625 856L1036 1475H1186Z" />
<glyph unicode="Y" glyph-name="Y" horiz-adv-x="1251" d="M1225 1475L694 610V0H555V610L25 1475H172L633 713L1077 1475H1225Z" />
<glyph unicode="Z" glyph-name="Z" horiz-adv-x="1251" d="M1165 1475V1352L219 121H1186V0H63V125L1010 1354H129V1475H1165Z" />
<glyph unicode="[" glyph-name="bracketleft" horiz-adv-x="682" d="M530 1475V1372H319V-293H530V-395H199V1475H530Z" />
<glyph unicode="\" glyph-name="backslash" horiz-adv-x="569" d="M0 1513H100L582 -184H481L0 1513Z" />
<glyph unicode="]" glyph-name="bracketright" horiz-adv-x="682" d="M152 -395V-293H362V1372H152V1475H483V-395H152Z" />
<glyph unicode="^" glyph-name="asciicircum" horiz-adv-x="1352" d="M338 840H205L596 1477H756L1147 840H1012L674 1380L338 840Z" />
<glyph unicode="_" glyph-name="underscore" horiz-adv-x="1024" d="M0 -164H1024V-260H0V-164Z" />
<glyph unicode="`" glyph-name="grave" horiz-adv-x="682" d="M227 1518L442 1225H338L63 1518H227Z" />
<glyph unicode="a" glyph-name="a" horiz-adv-x="1139" d="M1094 109V8Q1047 -8 989 -8Q941 -8 910 10T866 71T852 186Q779 73 682 21T444 -31Q281 -31 188 49T94 270Q94 484 305 561Q386 590 492 600L551 606L612 612L672 618Q770 628 806 656T842 754Q842 876
774 931T557 987Q422 987 352 926T266 735H143Q152 907 265 1001T575 1096Q680 1096 767 1068T905 987Q944 948 957 892T971 711V412V303Q972 251 973 206Q973 160 974 151T981 129Q994 100 1040 100Q1064 100 1094 109ZM846 408V580Q805 547 741 535Q720 530 659
520L623 516L586 510L549 506Q429 489 360 462T258 392T225 283Q225 221 257 174T345 102T477 76Q638 76 742 169T846 408Z" />
<glyph unicode="b" glyph-name="b" horiz-adv-x="1251" d="M291 1475V866Q338 977 435 1036T664 1096Q774 1096 861 1057T1011 944T1105 766T1137 530Q1137 361 1079 234T913 38T662 -31Q381 -31 283 209V0H162V1475H291ZM649 987Q567 987 500 956T385 866T313
721T287 530Q287 395 332 292T459 133T651 78Q756 78 837 134T962 294T1006 530Q1006 670 962 773T838 931T649 987Z" />
<glyph unicode="c" glyph-name="c" horiz-adv-x="1139" d="M911 381H1040Q1024 255 964 161T808 18T590 -31Q443 -31 331 37T157 230T96 522Q96 694 157 824T330 1025T590 1096Q782 1096 896 1001T1032 729H901Q877 856 800 922T596 989Q487 989 403 934T273 773T227
532Q227 396 270 294T395 135T580 78Q671 78 741 113T854 217T911 381Z" />
<glyph unicode="d" glyph-name="d" horiz-adv-x="1251" d="M1090 1475V0H969V211Q862 -31 596 -31Q487 -31 397 8T244 121T148 303T115 539Q115 703 173 830T339 1027T590 1096Q855 1096 961 868V1475H1090ZM602 987Q493 987 412 932T288 776T244 537Q244 397
287 294T411 134T604 78Q715 78 796 133T921 293T965 541Q965 674 920 776T793 932T602 987Z" />
<glyph unicode="e" glyph-name="e" horiz-adv-x="1139" d="M911 350H1034Q1016 246 967 170Q839 -31 578 -31Q471 -31 381 7T226 120T126 295T92 520Q92 642 127 749T228 935T382 1055T575 1096Q670 1096 751 1063T894 967T995 815Q1047 697 1047 500H223Q228
376 250 313Q292 200 376 139T578 78Q844 78 911 350ZM223 608H915Q912 693 886 765T815 886T710 961T573 987Q425 987 336 891T223 608Z" />
<glyph unicode="f" glyph-name="f" horiz-adv-x="569" d="M526 1479V1368Q475 1374 451 1374Q357 1374 336 1311Q328 1289 325 1261T322 1171V1065H504V956H322V0H193V956H41V1065H193V1157Q193 1254 200 1301T227 1382Q261 1438 311 1461T442 1485Q478 1485 526 1479Z" />
<glyph unicode="g" glyph-name="g" horiz-adv-x="1251" d="M1090 1065V102Q1090 -23 1075 -96T1024 -227Q967 -320 859 -369T600 -418Q469 -418 373 -381T221 -270T158 -96H287Q320 -313 604 -313Q728 -313 808 -273T925 -148T963 72V248Q905 128 812 71T584 14Q444
14 337 79T173 263T115 543Q115 667 149 769T247 945T400 1057T596 1096Q724 1096 814 1041T969 866V1065H1090ZM608 987Q415 987 319 838Q246 726 246 557Q246 426 289 328T412 176T596 123Q762 123 861 241T961 557Q961 687 918 784T794 934T608 987Z" />
<glyph unicode="h" glyph-name="h" horiz-adv-x="1139" d="M276 1475V870Q329 984 418 1040T637 1096Q736 1096 815 1055T938 938Q965 896 977 839T989 686V0H860V670Q860 825 811 887Q778 933 723 958T600 983Q505 983 434 939T322 811Q303 771 294 734T280 649T276
522V0H147V1475H276Z" />
<glyph unicode="i" glyph-name="i" horiz-adv-x="455" d="M293 1475V1266H164V1475H293ZM293 1065V0H164V1065H293Z" />
<glyph unicode="j" glyph-name="j" horiz-adv-x="455" d="M295 1065V-72Q295 -188 285 -240T248 -330Q217 -370 167 -389T37 -408Q20 -408 -25 -403V-295Q-2 -297 25 -297Q115 -297 140 -257T166 -76V1065H295ZM295 1475V1266H166V1475H295Z" />
<glyph unicode="k" glyph-name="k" horiz-adv-x="1024" d="M969 1065L547 674L997 0H848L455 584L268 403V0H139V1475H268V545L809 1065H969Z" />
<glyph unicode="l" glyph-name="l" horiz-adv-x="455" d="M293 1475V0H164V1475H293Z" />
<glyph unicode="m" glyph-name="m" horiz-adv-x="1706" d="M260 1065V883Q305 955 356 1004T465 1074T596 1096Q713 1096 785 1046T897 887Q958 996 1040 1046T1241 1096Q1327 1096 1399 1064T1513 973Q1549 927 1562 875T1575 733V0H1446V698Q1446 772 1438 815T1411
885Q1385 931 1330 957T1206 983Q1120 983 1054 943T952 829Q935 790 927 738T918 612V0H788V694Q788 818 760 874Q736 924 684 953T561 983Q473 983 404 940T297 815Q260 737 260 586V0H131V1065H260Z" />
<glyph unicode="n" glyph-name="n" horiz-adv-x="1139" d="M276 1065V868Q344 990 425 1043T633 1096Q698 1096 757 1078T862 1027T936 950Q967 903 978 846T989 684V0H860V643Q860 730 855 772T836 850Q812 911 749 947T604 983Q508 983 435 940T322 817Q297
763 287 703T276 537V0H147V1065H276Z" />
<glyph unicode="o" glyph-name="o" horiz-adv-x="1139" d="M580 1096Q686 1096 775 1057T928 943T1027 765T1061 535Q1061 363 1002 234T831 37T571 -31Q461 -31 369 8T213 121T113 301T78 535Q78 662 113 766T215 944T373 1057T580 1096ZM575 987Q493 987 426
957T309 866T235 722T209 537Q209 396 253 293T378 134T571 78Q681 78 762 133T887 292T930 535Q930 667 886 770T762 930T575 987Z" />
<glyph unicode="p" glyph-name="p" horiz-adv-x="1251" d="M283 1065V862Q398 1096 657 1096Q763 1096 852 1057T1005 943T1102 766T1137 541Q1137 409 1104 303T1008 122T858 8T662 -31Q531 -31 437 28T291 199V-395H162V1065H283ZM649 987Q563 987 497 957T383
866T311 721T287 532Q287 394 331 291T457 133T649 78Q812 78 910 202T1008 539Q1008 669 963 771T836 930T649 987Z" />
<glyph unicode="q" glyph-name="q" horiz-adv-x="1251" d="M1090 1065V-395H961V199Q910 89 815 29T590 -31Q445 -31 338 36T173 229T115 526Q115 656 148 762T245 942T398 1056T598 1096Q792 1096 901 969Q933 935 969 862V1065H1090ZM606 987Q494 987 413 932T288
772T244 526Q244 390 288 289T411 133T600 78Q712 78 794 133T921 293T965 539Q965 676 921 777T796 932T606 987Z" />
<glyph unicode="r" glyph-name="r" horiz-adv-x="682" d="M627 1081V950H598Q450 950 362 831Q316 768 300 685T283 436V0H154V1065H274V827Q313 920 360 976T471 1056T627 1081Z" />
<glyph unicode="s" glyph-name="s" horiz-adv-x="1024" d="M893 756H766Q754 875 689 931T498 987Q382 987 318 941T254 811Q254 753 276 722T361 665T547 610Q650 587 714 564T821 508Q870 476 900 419T930 295Q930 198 878 124T732 9T512 -31Q277 -31 164 119Q128
169 112 219T94 348H221Q229 244 268 184Q305 134 370 106T518 78Q643 78 721 134T799 281Q799 364 741 407T516 492Q404 520 365 531T299 553T240 582Q185 613 154 669T123 795Q123 887 169 954T300 1059T500 1096Q606 1096 689 1064T821 971Q856 930 872 883T893
756Z" />
<glyph unicode="t" glyph-name="t" horiz-adv-x="569" d="M520 1065V956H330V285Q330 207 338 170T370 118T442 104Q478 104 520 113V0Q465 -8 416 -8Q337 -8 291 14T221 84Q209 115 205 164T201 348V956H41V1065H201V1391H330V1065H520Z" />
<glyph unicode="u" glyph-name="u" horiz-adv-x="1139" d="M989 1065V0H868V199Q822 106 766 61Q714 19 647 -6T512 -31Q420 -31 341 4T213 104Q178 153 163 218T147 379V1065H276V434Q276 353 281 306T301 219Q326 158 390 120T535 82Q621 82 692 123T803 238Q860
334 860 518V1065H989Z" />
<glyph unicode="v" glyph-name="v" horiz-adv-x="1024" d="M989 1065L592 0H453L35 1065H174L524 127L858 1065H989Z" />
<glyph unicode="w" glyph-name="w" horiz-adv-x="1479" d="M1448 1065L1141 0H1001L739 909L481 0H338L31 1065H164L424 147L668 1065H815L1071 150L1315 1065H1448Z" />
<glyph unicode="x" glyph-name="x" horiz-adv-x="1024" d="M944 1065L580 567L985 0H831L506 475L180 0H37L434 559L68 1065H219L506 651L801 1065H944Z" />
<glyph unicode="y" glyph-name="y" horiz-adv-x="1024" d="M987 1065L573 -41Q530 -157 506 -212T457 -305Q423 -357 372 -381T246 -406Q203 -406 147 -395V-281Q211 -295 240 -295Q326 -295 375 -215Q416 -138 465 8L37 1065H176L530 143L856 1065H987Z" />
<glyph unicode="z" glyph-name="z" horiz-adv-x="1024" d="M928 1065V973L217 106H963V0H74V104L778 956H121V1065H928Z" />
<glyph unicode="{" glyph-name="braceleft" horiz-adv-x="682" d="M344 1163V788Q344 685 318 631T223 539Q267 514 294 480T332 400T344 281V-76Q344 -144 355 -186T395 -254Q415 -271 451 -282T526 -293H578V-395H526Q416 -395 350 -363T253 -260T223 -68V281Q223
378 195 424T98 492V592Q165 611 194 658T223 795V1174Q223 1280 254 1346T352 1444T528 1475H578V1372H526Q483 1372 444 1358T385 1321Q344 1274 344 1163Z" />
<glyph unicode="|" glyph-name="bar" horiz-adv-x="455" d="M289 1513V0H166V1513H289Z" />
<glyph unicode="}" glyph-name="braceright" horiz-adv-x="682" d="M336 -84V291Q336 395 363 450T457 541Q390 580 363 636T336 799V1155Q336 1288 285 1333Q270 1349 232 1360T154 1372H104V1475H156Q321 1475 389 1401T457 1147V799Q457 702 485 656T584 588V487Q514
467 486 422T457 285V-94Q457 -201 426 -267T328 -364T154 -395H104V-293H154Q200 -293 238 -279T295 -242Q336 -195 336 -84Z" />
<glyph unicode="~" glyph-name="asciitilde" horiz-adv-x="1352" d="M240 559L164 618Q277 856 449 856Q493 856 550 836T698 768Q768 731 799 717T854 696T909 690Q967 690 1013 729T1112 860L1188 801Q1079 565 893 565Q844 565 772 594Q748 604 709 627L623
670Q507 731 442 731Q384 731 338 692T240 559Z" />
</font>
</defs>
</svg>
